<?xml version="1.0" standalone="no"?>
<!DOCTYPE svg PUBLIC "-//W3C//DTD SVG 20010904//EN"
 "http://www.w3.org/TR/2001/REC-SVG-20010904/DTD/svg10.dtd">
<svg version="1.0" xmlns="http://www.w3.org/2000/svg"
 width="16.000000pt" height="16.000000pt" viewBox="0 0 16.000000 16.000000"
 preserveAspectRatio="xMidYMid meet">
<metadata>
Created by potrace 1.11, written by Peter Selinger 2001-2013
</metadata>
<g transform="translate(0.000000,16.000000) scale(0.002286,-0.002286)"
fill="#000000" stroke="none">
<path d="M2450 6618 c-47 -10 -94 -20 -105 -23 -138 -30 -256 -93 -361 -192
-169 -161 -296 -372 -340 -569 -17 -79 -22 -202 -10 -241 6 -17 2 -22 -21 -27
-34 -6 -178 -28 -213 -31 -14 -1 -59 -7 -100 -13 -41 -7 -95 -14 -120 -17 -25
-3 -56 -8 -70 -10 -14 -3 -43 -7 -65 -10 -43 -5 -254 -34 -295 -40 -14 -2 -45
-7 -70 -10 -158 -22 -184 -27 -228 -48 -82 -38 -96 -105 -39 -184 31 -44 138
-132 160 -134 7 0 21 -2 32 -4 11 -3 54 -7 95 -10 41 -4 86 -8 100 -10 29 -5
115 -14 180 -19 25 -2 68 -7 95 -10 28 -3 80 -8 117 -11 37 -3 75 -7 85 -9 10
-2 54 -7 98 -10 44 -4 94 -9 110 -11 76 -10 171 -18 179 -16 36 9 112 -114
160 -261 25 -78 30 -183 12 -249 -7 -24 -2 -27 81 -67 252 -118 498 -174 773
-176 146 -1 270 7 289 18 4 3 24 6 44 8 34 2 37 5 58 63 42 113 129 317 225
523 19 40 34 74 34 77 0 2 11 28 24 57 120 263 187 523 187 730 0 65 -2 121
-4 125 -3 5 -8 28 -12 52 -45 303 -408 681 -730 760 -101 25 -239 25 -355 -1z
m-106 -697 c51 -32 87 -97 88 -158 1 -176 -194 -268 -325 -152 -119 104 -72
295 81 334 55 14 107 6 156 -24z"/>
<path d="M1544 4167 c-218 -201 -406 -404 -446 -481 -64 -124 -87 -263 -86
-521 0 -110 4 -227 8 -260 5 -33 11 -87 15 -120 15 -123 29 -201 61 -325 49
-196 107 -336 178 -428 36 -46 56 -60 161 -111 150 -73 211 -100 340 -151 291
-116 741 -240 995 -274 56 -8 120 -17 142 -21 9 -2 48 -7 85 -10 37 -4 82 -8
98 -10 192 -22 623 -22 835 0 19 2 67 6 105 9 39 4 77 8 85 11 8 2 38 6 65 10
93 11 120 16 290 50 193 38 443 105 620 165 66 22 125 42 130 44 6 2 19 7 30
11 11 5 70 27 130 51 101 39 188 76 291 125 22 10 43 19 46 19 10 0 186 117
248 165 182 140 334 345 411 556 26 71 72 243 85 314 15 87 45 255 49 275 3
14 8 39 10 55 21 123 40 217 66 324 16 68 29 125 29 128 0 2 -87 -41 -193 -96
-325 -168 -399 -187 -712 -177 -115 4 -223 8 -240 11 -16 2 -68 6 -115 10 -47
3 -98 8 -115 10 -16 2 -55 7 -85 10 -30 4 -62 8 -71 10 -8 1 -40 6 -70 9 -30
4 -67 9 -84 11 -16 3 -43 7 -60 10 -16 2 -48 7 -70 10 -22 4 -85 15 -140 25
-55 11 -111 21 -125 24 -14 2 -36 7 -50 10 -14 3 -36 8 -50 10 -14 2 -43 9
-65 14 -22 6 -55 14 -72 17 -62 10 -169 36 -717 172 l-550 136 -70 -10 c-70
-11 -447 -10 -516 1 -285 44 -484 107 -706 222 l-100 52 -100 -91z m732 -685
c5 -4 10 -34 12 -67 3 -85 38 -218 78 -302 115 -241 378 -455 724 -588 95 -37
316 -103 370 -111 19 -3 41 -7 49 -10 17 -5 179 -30 276 -41 39 -4 174 -8 300
-8 203 1 281 5 375 20 14 2 45 6 70 10 296 43 591 168 758 320 28 26 54 46 59
45 4 -1 22 -13 38 -28 17 -15 52 -44 78 -65 26 -21 47 -43 47 -50 0 -18 -129
-135 -205 -184 -184 -122 -472 -229 -694 -259 -18 -2 -36 -6 -40 -8 -3 -2 -35
-7 -71 -11 -36 -4 -74 -9 -85 -11 -29 -6 -249 -17 -325 -17 -75 0 -311 12
-355 18 -16 2 -55 7 -85 10 -30 4 -63 9 -75 11 -11 2 -47 9 -80 14 -102 18
-265 60 -375 97 -647 215 -1030 627 -1065 1143 l-5 80 108 -1 c60 0 112 -3
118 -7z"/>
<path d="M4480 1293 c-41 -8 -82 -16 -90 -18 -8 -2 -23 -4 -32 -4 -17 -1 -18
-20 -18 -244 l0 -242 -102 12 c-57 6 -103 12 -104 12 0 1 -2 186 -3 342 l-1
86 -51 -8 c-28 -4 -83 -11 -122 -14 -39 -4 -75 -9 -80 -12 -4 -2 -7 -87 -6
-186 2 -220 2 -214 -13 -214 -90 -3 -242 -36 -349 -77 -143 -55 -303 -159
-444 -291 l-80 -74 80 -1 c290 -3 1908 0 1911 3 5 5 -78 116 -123 162 -56 59
-120 107 -191 146 -56 31 -63 37 -61 64 0 17 1 153 0 303 l-1 272 -22 -1 c-13
-1 -57 -8 -98 -16z"/>
</g>
</svg>
